# xmcd
#
# Track frame offsets: 
#        150
#        24674
#        47587
#        67322
#        92966
#        117846
#        122914
#        156509
#        181568
#
# Disc length: 2932 seconds
#
# Revision: 1
# Processed by: cddbd v1.5.2PL0 Copyright (c) Steve Scherf et al.
# Submitted via: ExactAudioCopy v1.3
#
DISCID=7b0b7209
DTITLE=Corey Stevens - Myth Live [disk 1]
DYEAR=2008
DGENRE=Blues Rock
TTITLE0=Another Pretty Face
TTITLE1=My Blues Are Turning Red
TTITLE2=Blue Drops Of Rain
TTITLE3=The Brothers
TTITLE4=It's Over
TTITLE5=Band Introduction
TTITLE6=Road To Zen
TTITLE7=This Train
TTITLE8=Something I Can't Do
EXTD=
EXTT0=
EXTT1=
EXTT2=
EXTT3=
EXTT4=
EXTT5=
EXTT6=
EXTT7=
EXTT8=
PLAYORDER=
